<svg id="Layer_1" data-name="Layer 1" xmlns="http://www.w3.org/2000/svg" viewBox="0 0 499.21 120.01"><defs><style>.cls-1{fill:#fff;}.cls-2{fill:#ffc225;}</style></defs><title>logo_walmart</title><path class="cls-1" d="M345.86,78.94c0-11.85-5.07-22.27-22.17-22.27a40.45,40.45,0,0,0-19.55,4.66l2.77,9.52a28.71,28.71,0,0,1,14.28-4c8.67,0,10.1,4.91,10.1,8.08v.75c-18.94,0-30.89,6.51-30.89,19.86,0,8.15,6.08,15.79,16.69,15.79,6.49,0,12-2.6,15.22-6.77h.32s2.16,9,14.06,5.59a77.06,77.06,0,0,1-.83-12.6ZM331.74,91.46a9.76,9.76,0,0,1-.35,2.83,9.92,9.92,0,0,1-9.53,6.69c-3.93,0-7-2.23-7-6.92,0-7.19,7.89-9.18,16.91-9.13" transform="translate(-56.32 -15.1)"/><path class="cls-1" d="M56.32,40.53S68.68,91.17,70.65,99.39c2.3,9.6,6.45,13.13,18.41,10.75l7.72-31.41c2-7.8,3.26-13.35,4.52-21.29h.22a213.17,213.17,0,0,0,3.75,21.33S108.42,93,110,100.5s6.1,12.21,17.82,9.64l18.39-69.61H131.38L125.1,70.62c-1.69,8.76-3.22,15.61-4.4,23.62h-.21c-1.07-7.93-2.43-14.5-4.15-23l-6.53-30.67H94.33l-7,29.89c-2,9.09-3.83,16.43-5,24.17h-.21c-1.21-7.29-2.82-16.51-4.56-25.3,0,0-4.15-21.39-5.6-28.76" transform="translate(-56.32 -15.1)"/><path class="cls-1" d="M187.56,78.94c0-11.85-5.06-22.27-22.16-22.27a40.52,40.52,0,0,0-19.56,4.66l2.79,9.52a28.64,28.64,0,0,1,14.26-4c8.68,0,10.1,4.91,10.1,8.08v.75c-18.93,0-30.87,6.51-30.87,19.86,0,8.15,6.08,15.79,16.66,15.79,6.51,0,11.95-2.6,15.21-6.77h.32s2.18,9,14.09,5.59a77,77,0,0,1-.84-12.6ZM173.45,91.46a9.76,9.76,0,0,1-.35,2.83,9.93,9.93,0,0,1-9.56,6.69c-3.9,0-7-2.23-7-6.92,0-7.19,7.89-9.18,16.91-9.13" transform="translate(-56.32 -15.1)"/><polyline class="cls-1" points="153.08 80.26 153.08 25.43 138.94 25.43 138.94 95.04 153.08 95.04"/><path class="cls-1" d="M389.18,40.53V91.88c0,7.08,1.35,12,4.2,15.07,2.51,2.65,6.6,4.37,11.5,4.37a33.72,33.72,0,0,0,10.24-1.52l-.19-11a21.67,21.67,0,0,1-5.36.63c-4.82,0-6.44-3.08-6.44-9.44V70.31h12.31V57H403.13V40.53" transform="translate(-56.32 -15.1)"/><path class="cls-1" d="M352.69,57.84v52.29h14.6V83.36a19.07,19.07,0,0,1,.32-3.86c1.08-5.61,5.36-9.19,11.53-9.19a26.66,26.66,0,0,1,4.2.37V57a14.24,14.24,0,0,0-3.21-.32c-5.44,0-11.63,3.51-14.24,11h-.38V57.84" transform="translate(-56.32 -15.1)"/><path class="cls-1" d="M217.59,57.84v52.29h14.22V79.47a12.07,12.07,0,0,1,.67-4.28c1.16-3.09,4-6.7,8.62-6.7,5.73,0,8.43,4.85,8.43,11.84v29.8h14.19v-31a14.68,14.68,0,0,1,.59-4.24,9,9,0,0,1,8.54-6.37c5.78,0,8.59,4.76,8.59,13v28.64h14.19V79.34c0-16.24-8.24-22.67-17.56-22.67a18.87,18.87,0,0,0-10.31,2.84A21.89,21.89,0,0,0,261.13,66h-.21c-2.24-5.63-7.52-9.35-14.41-9.35-8.83,0-12.82,4.48-15.21,8.28h-.22V57.84" transform="translate(-56.32 -15.1)"/><path class="cls-2" d="M491.84,55.5c2.8,0,5.11-1.46,5.44-3.35l2.77-31.4c0-3.1-3.64-5.65-8.21-5.65s-8.19,2.55-8.19,5.65l2.77,31.4c.3,1.89,2.62,3.35,5.42,3.35" transform="translate(-56.32 -15.1)"/><path class="cls-2" d="M474.87,65.31c1.4-2.43,1.3-5.17-.19-6.38l-25.82-18.1c-2.67-1.55-6.7.32-9,4.28s-1.85,8.37.81,9.92l28.57,13.31c1.81.66,4.23-.62,5.63-3" transform="translate(-56.32 -15.1)"/><path class="cls-2" d="M508.8,65.3c1.43,2.43,3.85,3.7,5.63,3L543,55c2.69-1.55,3.07-6,.81-9.92s-6.33-5.83-9-4.28L509,58.93c-1.45,1.22-1.56,4-.16,6.39" transform="translate(-56.32 -15.1)"/><path class="cls-2" d="M491.84,94.72c2.8,0,5.11,1.45,5.44,3.34l2.77,31.4c0,3.11-3.64,5.65-8.21,5.65s-8.19-2.54-8.19-5.65l2.77-31.4c.3-1.89,2.62-3.34,5.42-3.34" transform="translate(-56.32 -15.1)"/><path class="cls-2" d="M508.8,84.91c1.43-2.43,3.85-3.7,5.63-3L543,95.18c2.69,1.55,3.07,6,.81,9.93s-6.33,5.83-9,4.28L509,91.3c-1.45-1.23-1.56-4-.16-6.39" transform="translate(-56.32 -15.1)"/><path class="cls-2" d="M474.87,84.91c1.4,2.43,1.3,5.16-.19,6.39l-25.82,18.09c-2.67,1.54-6.7-.33-9-4.28s-1.85-8.38.81-9.93l28.57-13.3c1.81-.67,4.23.6,5.63,3" transform="translate(-56.32 -15.1)"/><path class="cls-2" d="M551.38,106.63h.37c.46,0,.68.17.73.55a2.8,2.8,0,0,0,.27.83h.89a2,2,0,0,1-.24-.85,1.07,1.07,0,0,0-.65-.86v0a.9.9,0,0,0,.73-.83,1,1,0,0,0-.35-.75,2,2,0,0,0-1.21-.27,7.09,7.09,0,0,0-1.35.12V108h.81Zm0-1.58.42,0c.52,0,.76.22.76.54s-.35.51-.81.51h-.37Zm.53-2.36a3.52,3.52,0,1,0,3.59,3.51,3.53,3.53,0,0,0-3.59-3.51m0,.71a2.8,2.8,0,1,1-2.72,2.8,2.7,2.7,0,0,1,2.72-2.8" transform="translate(-56.32 -15.1)"/></svg>