<?xml version="1.0" encoding="utf-8"?>
<!-- Generator: Adobe Illustrator 22.0.1, SVG Export Plug-In . SVG Version: 6.00 Build 0)  -->
<svg version="1.1" id="Layer_1" xmlns="http://www.w3.org/2000/svg" xmlns:xlink="http://www.w3.org/1999/xlink" x="0px" y="0px"
	 viewBox="0 0 293.9 300" style="enable-background:new 0 0 293.9 300;" xml:space="preserve">
<style type="text/css">
	.st0{fill:#78C043;}
	.st1{fill:#FFFFFF;}
</style>
<title>icon_confirm_denied</title>
<path class="st0" d="M149.6,13.4c-76,0-137.8,61.8-137.8,137.8S73.6,289,149.6,289s137.8-61.8,137.8-137.8S225.6,13.4,149.6,13.4z"
	/>
<path class="st1" d="M130.4,212.2c-1.7,0-3.3-0.6-4.5-1.8l-53.1-49.8c-2.7-2.5-2.8-6.7-0.3-9.4c2.5-2.7,6.7-2.8,9.4-0.3l48,45
	L217,92.5c2.3-2.9,6.4-3.4,9.3-1.1c2.9,2.3,3.4,6.4,1.1,9.3c-0.1,0.1-0.2,0.2-0.3,0.3l-91.6,108.8c-1.2,1.4-2.9,2.2-4.7,2.4
	L130.4,212.2z"/>
</svg>
