<?xml version="1.0" encoding="utf-8"?>
<!-- Generator: Adobe Illustrator 22.0.1, SVG Export Plug-In . SVG Version: 6.00 Build 0)  -->
<svg version="1.1" id="Capa_1" xmlns="http://www.w3.org/2000/svg" xmlns:xlink="http://www.w3.org/1999/xlink" x="0px" y="0px"
	 viewBox="0 0 222.5 222.5" style="enable-background:new 0 0 222.5 222.5;" xml:space="preserve">
<path d="M171.8,17.7h-54.1V7.2c0-2.9-2.3-5.2-5.2-5.2c-2.9,0-5.2,2.4-5.2,5.2v10.5H53c-7.7,0-14,6.3-14,14v18.4l0,18.4v47
	c0,7.7,6.3,14,14,14h25.4l-22.3,83.3c-0.7,2.8,0.9,5.7,3.7,6.4c0.5,0.1,0.9,0.2,1.4,0.2c2.3,0,4.4-1.5,5.1-3.9l23-86h17.9v60.9
	c0,2.9,2.3,5.2,5.2,5.2c2.9,0,5.2-2.3,5.2-5.2v-60.9h17.9l23,86c0.6,2.3,2.7,3.9,5.1,3.9c0.4,0,0.9-0.1,1.4-0.2
	c2.8-0.7,4.5-3.6,3.7-6.4l-22.3-83.3h25.4c7.7,0,14-6.3,14-14V31.7C185.8,24,179.5,17.7,171.8,17.7z M178.8,115.5L178.8,115.5
	L178.8,115.5c0,3.8-3.1,7-7,7H53c-3.9,0-7-3.1-7-7V70.8l0-18.4V31.7c0-3.8,3.1-7,7-7h118.7c3.9,0,7,3.1,7,7V115.5z"/>
</svg>
