<?xml version="1.0" encoding="utf-8"?>
<!-- Generator: Adobe Illustrator 22.0.1, SVG Export Plug-In . SVG Version: 6.00 Build 0)  -->
<svg version="1.1" id="Capa_1" xmlns="http://www.w3.org/2000/svg" xmlns:xlink="http://www.w3.org/1999/xlink" x="0px" y="0px"
	 viewBox="0 0 512 512" style="enable-background:new 0 0 512 512;" xml:space="preserve">
<g>
	<g>
		<path d="M477.9,8.5H34.1C15.3,8.5,0,23.9,0,42.7v281.6c0,4.7,3.8,8.5,8.5,8.5h494.9c4.7,0,8.5-3.8,8.5-8.5V42.7
			C512,23.9,496.7,8.5,477.9,8.5z M494.9,315.7H17.1V42.7c0-9.4,7.7-17.1,17.1-17.1h443.7c9.4,0,17.1,7.7,17.1,17.1V315.7z"/>
	</g>
</g>
<g>
	<g>
		<path d="M503.5,315.7H8.5c-4.7,0-8.5,3.8-8.5,8.5v42.7c0,18.8,15.3,34.1,34.1,34.1h443.7c18.8,0,34.1-15.3,34.1-34.1v-42.7
			C512,319.6,508.2,315.7,503.5,315.7z M494.9,366.9c0,9.4-7.7,17.1-17.1,17.1H34.1c-9.4,0-17.1-7.7-17.1-17.1v-34.1h477.9
			L494.9,366.9L494.9,366.9z"/>
	</g>
</g>
<g>
	<g>
		<path d="M366.9,452.3H145.1c-14.1,0-25.6,11.5-25.6,25.6s11.5,25.6,25.6,25.6h221.9c14.1,0,25.6-11.5,25.6-25.6
			S381,452.3,366.9,452.3z M366.9,486.4H145.1c-4.7,0-8.5-3.8-8.5-8.5s3.8-8.5,8.5-8.5h221.9c4.7,0,8.5,3.8,8.5,8.5
			S371.6,486.4,366.9,486.4z"/>
	</g>
</g>
<g>
	<g>
		<path d="M349.9,452.3c-28.3,0-42.7-20.1-42.7-59.7c0-4.7-3.8-8.5-8.5-8.5h-85.3c-4.7,0-8.5,3.8-8.5,8.5
			c0,39.6-14.4,59.7-42.7,59.7c-4.7,0-8.5,3.8-8.5,8.5s3.8,8.5,8.5,8.5h187.7c4.7,0,8.5-3.8,8.5-8.5S354.6,452.3,349.9,452.3z
			 M203.7,452.3c10.5-11.6,16.7-29,17.9-51.2h68.7c1.2,22.2,7.4,39.6,17.9,51.2H203.7z"/>
	</g>
</g>
<g>
	<g>
		<path d="M387,218.3L371,202.2l8.9-8.9c1.7-1.7,2.3-4.1,1.8-6.3c-0.6-2.3-2.3-4.1-4.5-4.7l-66.6-20c-2.3-0.7-4.9-0.1-6.6,1.7
			c-1.7,1.7-2.4,4.3-1.7,6.6l20,66.6c0.7,2.3,2.5,4,4.7,4.5c2.3,0.6,4.7-0.1,6.3-1.8l9.4-9.4l16.1,16.1c1.2,1.3,2.9,2,4.7,2
			s3.5-0.7,4.7-2l18.8-18.8C389.7,225.1,389.7,220.9,387,218.3z M363.5,232.4l-14.6-14.6c-1.7-1.7-3.9-2.5-6.1-2.5
			c-2.2,0-4.5,0.9-6.1,2.5l-4.8,4.8l-13.2-44.1l44.1,13.2l-5.2,5.2c-1.4,1.4-2.2,3.3-2.2,5.3c0,2,0.8,3.9,2.2,5.3l15.4,15.4
			L363.5,232.4z"/>
	</g>
</g>
</svg>
