<?xml version="1.0" encoding="iso-8859-1"?>
<!-- Generator: Adobe Illustrator 19.0.0, SVG Export Plug-In . SVG Version: 6.00 Build 0)  -->
<svg version="1.1" id="Layer_1" xmlns="http://www.w3.org/2000/svg" xmlns:xlink="http://www.w3.org/1999/xlink" x="0px" y="0px"
	 viewBox="0 0 512 512" style="enable-background:new 0 0 512 512;" xml:space="preserve">
<g>
	<g>
		<path d="M399.882,248.28c-12.314,13.152-20.786,31.914-25.258,55.86c-6.592-3.06-13.926-4.78-21.658-4.78h-80.264v-28.534h51.562
			c19.124,0,37.392-8.186,50.121-22.458c12.729-14.272,18.779-33.355,16.598-52.354L375.324,59.502
			C371.431,25.581,342.747,0,308.603,0H203.399c-34.144,0-62.828,25.581-66.721,59.502l-15.66,136.513
			c-2.18,18.999,3.87,38.08,16.598,52.354s30.998,22.458,50.121,22.458H239.3v28.534h-80.264c-7.732,0-15.066,1.72-21.658,4.78
			c-4.472-23.946-12.944-42.707-25.258-55.86c-12.972-13.856-30.287-21.179-50.077-21.179v33.404
			c10.736,0,18.889,3.358,25.655,10.567c18.984,20.224,20.612,64.636,19.637,80.043l0.072,0.004v2.277
			c0,28.467,23.16,51.627,51.627,51.627h80.264v44.086c-26.687,5.433-49.383,23.68-60.239,49.548l30.801,12.926
			c5.587-13.314,16.389-23.267,29.438-27.892V512h33.404v-28.307c13.049,4.626,23.85,14.578,29.438,27.892l30.801-12.926
			c-10.856-25.868-33.552-44.116-60.239-49.548v-44.086h80.264c28.467,0,51.627-23.16,51.627-51.627v-2.276l0.072-0.004
			c-0.975-15.407,0.653-59.82,19.637-80.043c6.766-7.21,14.919-10.567,25.655-10.567v-33.404
			C430.17,227.101,412.854,234.424,399.882,248.28z"/>
	</g>
</g>
<g>
</g>
<g>
</g>
<g>
</g>
<g>
</g>
<g>
</g>
<g>
</g>
<g>
</g>
<g>
</g>
<g>
</g>
<g>
</g>
<g>
</g>
<g>
</g>
<g>
</g>
<g>
</g>
<g>
</g>
</svg>
