<?xml version="1.0" encoding="iso-8859-1"?>
<!-- Generator: Adobe Illustrator 18.0.0, SVG Export Plug-In . SVG Version: 6.00 Build 0)  -->
<!DOCTYPE svg PUBLIC "-//W3C//DTD SVG 1.1//EN" "http://www.w3.org/Graphics/SVG/1.1/DTD/svg11.dtd">
<svg version="1.1" id="Capa_1" xmlns="http://www.w3.org/2000/svg" xmlns:xlink="http://www.w3.org/1999/xlink" x="0px" y="0px"
	 viewBox="0 0 363.09 363.09" style="enable-background:new 0 0 363.09 363.09;" xml:space="preserve">
<g>
	<g>
		<g>
			<path d="M325.59,82.067H37.5c-20.678,0-37.5,16.822-37.5,37.5v94.205c0,19.713,15.293,35.909,34.635,37.38v22.37
				c0,4.143,3.357,7.5,7.5,7.5h57.352c4.143,0,7.5-3.357,7.5-7.5v-22.25h149.117v22.25c0,4.143,3.357,7.5,7.5,7.5h57.352
				c4.143,0,7.5-3.357,7.5-7.5v-22.37c19.344-1.471,34.635-17.667,34.635-37.38v-94.205C363.09,98.89,346.268,82.067,325.59,82.067z
				 M91.986,266.022H49.635v-14.75h42.352V266.022z M271.104,266.022v-14.75h42.352v14.75H271.104z M348.09,213.772
				c0,12.406-10.094,22.5-22.5,22.5H37.5c-12.406,0-22.5-10.094-22.5-22.5v-94.205c0-12.406,10.094-22.5,22.5-22.5h288.09
				c12.406,0,22.5,10.094,22.5,22.5V213.772z"/>
			<g>
				<g>
					<path d="M266.57,222.813c-30.957,0-56.143-25.187-56.143-56.145c0-30.957,25.186-56.143,56.143-56.143
						c30.959,0,56.145,25.186,56.145,56.143C322.715,197.627,297.529,222.813,266.57,222.813z M266.57,125.526
						c-22.686,0-41.143,18.456-41.143,41.143c0,22.688,18.457,41.145,41.143,41.145c22.688,0,41.145-18.457,41.145-41.145
						C307.715,143.982,289.258,125.526,266.57,125.526z"/>
				</g>
				<g>
					<path d="M241.611,174.169c-4.143,0-7.5-3.357-7.5-7.5c0-17.898,14.563-32.459,32.459-32.459c4.143,0,7.5,3.357,7.5,7.5
						c0,4.143-3.357,7.5-7.5,7.5c-9.627,0-17.459,7.832-17.459,17.459C249.111,170.812,245.754,174.169,241.611,174.169z"/>
				</g>
			</g>
		</g>
		<g>
			<g>
				<path d="M133.105,144.028H39.168c-4.143,0-7.5-3.358-7.5-7.5c0-4.143,3.357-7.5,7.5-7.5h93.937c4.143,0,7.5,3.357,7.5,7.5
					C140.605,140.671,137.248,144.028,133.105,144.028z"/>
			</g>
			<g>
				<path d="M133.105,174.169H39.168c-4.143,0-7.5-3.357-7.5-7.5s3.357-7.5,7.5-7.5h93.937c4.143,0,7.5,3.357,7.5,7.5
					S137.248,174.169,133.105,174.169z"/>
			</g>
			<g>
				<path d="M133.105,204.31H39.168c-4.143,0-7.5-3.357-7.5-7.5c0-4.143,3.357-7.5,7.5-7.5h93.937c4.143,0,7.5,3.357,7.5,7.5
					C140.605,200.952,137.248,204.31,133.105,204.31z"/>
			</g>
		</g>
	</g>
</g>
<g>
</g>
<g>
</g>
<g>
</g>
<g>
</g>
<g>
</g>
<g>
</g>
<g>
</g>
<g>
</g>
<g>
</g>
<g>
</g>
<g>
</g>
<g>
</g>
<g>
</g>
<g>
</g>
<g>
</g>
</svg>
