<svg height="512pt" viewBox="0 0 512 512" width="512pt" xmlns="http://www.w3.org/2000/svg"><path d="m467 30h-287v-15c0-8.285156-6.714844-15-15-15h-90c-8.285156 0-15 6.714844-15 15v15h-15c-24.8125 0-45 20.1875-45 45v332c0 24.8125 20.1875 45 45 45h60v15c0 24.8125 20.1875 45 45 45h105c24.8125 0 45-20.1875 45-45v-15h167c24.8125 0 45-20.1875 45-45v-332c0-24.8125-20.1875-45-45-45zm-377 0h60v332h-60zm-45 392c-8.269531 0-15-6.730469-15-15v-332c0-8.269531 6.730469-15 15-15h15v317c0 8.285156 6.714844 15 15 15h30v30zm225 45c0 8.269531-6.730469 15-15 15h-105c-8.269531 0-15-6.730469-15-15v-15h135zm212-60c0 8.269531-6.730469 15-15 15h-332v-30h30c8.285156 0 15-6.714844 15-15v-317h287c8.269531 0 15 6.730469 15 15zm0 0"/><path d="m437 90h-212c-8.285156 0-15 6.714844-15 15v92c0 8.285156 6.714844 15 15 15h212c8.285156 0 15-6.714844 15-15v-92c0-8.285156-6.714844-15-15-15zm-15 92h-182v-62h182zm0 0"/><path d="m255 242h-30c-8.285156 0-15 6.714844-15 15s6.714844 15 15 15h30c8.285156 0 15-6.714844 15-15s-6.714844-15-15-15zm0 0"/><path d="m346 242h-30c-8.285156 0-15 6.714844-15 15s6.714844 15 15 15h30c8.285156 0 15-6.714844 15-15s-6.714844-15-15-15zm0 0"/><path d="m437 242h-30c-8.285156 0-15 6.714844-15 15s6.714844 15 15 15h30c8.285156 0 15-6.714844 15-15s-6.714844-15-15-15zm0 0"/><path d="m255 302h-30c-8.285156 0-15 6.714844-15 15s6.714844 15 15 15h30c8.285156 0 15-6.714844 15-15s-6.714844-15-15-15zm0 0"/><path d="m346 302h-30c-8.285156 0-15 6.714844-15 15s6.714844 15 15 15h30c8.285156 0 15-6.714844 15-15s-6.714844-15-15-15zm0 0"/><path d="m437 302h-30c-8.285156 0-15 6.714844-15 15s6.714844 15 15 15h30c8.285156 0 15-6.714844 15-15s-6.714844-15-15-15zm0 0"/><path d="m255 362h-30c-8.285156 0-15 6.714844-15 15s6.714844 15 15 15h30c8.285156 0 15-6.714844 15-15s-6.714844-15-15-15zm0 0"/><path d="m346 362h-30c-8.285156 0-15 6.714844-15 15s6.714844 15 15 15h30c8.285156 0 15-6.714844 15-15s-6.714844-15-15-15zm0 0"/><path d="m437 362h-30c-8.285156 0-15 6.714844-15 15s6.714844 15 15 15h30c8.285156 0 15-6.714844 15-15s-6.714844-15-15-15zm0 0"/></svg>