<?xml version="1.0" encoding="utf-8"?>
<!-- Generator: Adobe Illustrator 22.0.1, SVG Export Plug-In . SVG Version: 6.00 Build 0)  -->
<svg version="1.1" id="Capa_1" xmlns="http://www.w3.org/2000/svg" xmlns:xlink="http://www.w3.org/1999/xlink" x="0px" y="0px"
	 viewBox="0 0 480 323" style="enable-background:new 0 0 480 323;" xml:space="preserve">
<g>
	<g>
		<path d="M472,11H8c-4.4,0-8,3.6-8,8v256c0,4.4,3.6,8,8,8h160v16h-32c-4.4,0-8,3.6-8,8s3.6,8,8,8h208c4.4,0,8-3.6,8-8s-3.6-8-8-8
			h-24v-16h152c4.4,0,8-3.6,8-8V19C480,14.6,476.4,11,472,11z M304,299H184v-16h120V299z M464,267H16V27h448V267z"/>
	</g>
</g>
<g>
	<g>
		<rect x="320" y="235" width="80" height="16"/>
	</g>
</g>
<g>
	<g>
		<rect x="416" y="235" width="16" height="16"/>
	</g>
</g>
</svg>
