<svg id="Layer_1" data-name="Layer 1" xmlns="http://www.w3.org/2000/svg" viewBox="0 0 811.79 911.28"><defs><style>.cls-1{fill:#ffc225;}</style></defs><title>walmart_menu</title><path class="cls-1" d="M518.43,367.62c21.28,0,38.86-11.09,41.32-25.44l21.06-238.4c0-23.57-27.61-42.94-62.38-42.94S456.3,80.21,456.3,103.78l21,238.4c2.28,14.35,19.86,25.44,41.1,25.44" transform="translate(-112.54 -60.84)"/><path class="cls-1" d="M389.61,442.13c10.64-18.47,9.84-39.26-1.41-48.48L192.1,256.21c-20.25-11.78-50.91,2.41-68.3,32.47s-14.11,63.57,6.12,75.36l217,101c13.71,5.05,32.1-4.65,42.73-23.09" transform="translate(-112.54 -60.84)"/><path class="cls-1" d="M647.27,442c10.83,18.47,29.24,28.14,42.73,23.07l216.94-101c20.45-11.78,23.33-45.32,6.15-75.36-17.4-30.09-48.05-44.25-68.28-32.47L648.69,393.66c-11,9.22-11.84,30-1.23,48.48" transform="translate(-112.54 -60.84)"/><path class="cls-1" d="M518.43,665.42c21.28,0,38.86,11,41.32,25.38l21.06,238.38c0,23.62-27.61,42.94-62.38,42.94S456.3,952.8,456.3,929.18l21-238.38c2.28-14.35,19.86-25.38,41.1-25.38" transform="translate(-112.54 -60.84)"/><path class="cls-1" d="M647.27,591c10.83-18.49,29.24-28.08,42.73-23L906.94,668.88c20.45,11.84,23.33,45.4,6.15,75.47-17.4,29.95-48.05,44.2-68.28,32.46L648.69,639.43c-11-9.33-11.84-30-1.23-48.53" transform="translate(-112.54 -60.84)"/><path class="cls-1" d="M389.61,590.91c10.64,18.47,9.84,39.2-1.41,48.53L192.1,776.8c-20.25,11.73-50.91-2.49-68.3-32.47s-14.11-63.63,6.12-75.44L346.88,568c13.71-5.1,32.1,4.52,42.73,23" transform="translate(-112.54 -60.84)"/></svg>